<svg width="68" height="102" xmlns="http://www.w3.org/2000/svg" xmlns:xlink="http://www.w3.org/1999/xlink" xml:space="preserve" overflow="hidden"><defs><linearGradient x1="132" y1="164.375" x2="200" y2="260" gradientUnits="userSpaceOnUse" spreadMethod="pad" id="fill0"><stop offset="0" stop-color="#1AB394"/><stop offset="1" stop-color="#3B7C6C"/></linearGradient><linearGradient x1="132" y1="230.25" x2="200" y2="260" gradientUnits="userSpaceOnUse" spreadMethod="pad" id="fill1"><stop offset="0" stop-color="#FBEEAF"/><stop offset="1" stop-color="#F6D451"/></linearGradient></defs><g transform="translate(-132 -158)"><path d="M158.912 158.699C158.125 159.093 157.806 160.05 158.2 160.838L161.387 167.213C161.781 168 162.738 168.319 163.525 167.925 164.313 167.532 164.632 166.574 164.238 165.787L161.05 159.412C160.657 158.625 159.699 158.306 158.912 158.699Z" fill="#197E6B" fill-rule="evenodd"/><path d="M158.912 158.699C158.125 159.093 157.806 160.05 158.2 160.838L161.387 167.213C161.781 168 162.738 168.319 163.525 167.925 164.313 167.532 164.632 166.574 164.238 165.787L161.05 159.412C160.657 158.625 159.699 158.306 158.912 158.699Z" fill="#000000" fill-rule="evenodd" fill-opacity="0.2"/><path d="M135.188 164.375C133.427 164.375 132 165.802 132 167.562L132 256.812C132 258.573 133.427 260 135.188 260L196.812 260C198.573 260 200 258.573 200 256.812L200 167.562C200 165.802 198.573 164.375 196.812 164.375L135.188 164.375ZM166 176.062C167.76 176.062 169.188 174.635 169.188 172.875 169.188 171.115 167.76 169.688 166 169.688 164.24 169.688 162.812 171.115 162.812 172.875 162.812 174.635 164.24 176.062 166 176.062Z" fill="url(#fill0)" fill-rule="evenodd"/><path d="M132 238.75 200 230.25 200 256.812C200 258.573 198.657 260 197 260L135 260C133.343 260 132 258.573 132 256.812L132 238.75Z" fill="url(#fill1)"/><path d="M173.088 158.699C173.875 159.093 174.194 160.05 173.8 160.838L167.425 173.588C167.032 174.375 166.074 174.694 165.287 174.3 164.5 173.907 164.181 172.949 164.574 172.162L170.949 159.412C171.343 158.625 172.3 158.306 173.088 158.699Z" fill="#197E6B" fill-rule="evenodd"/><path d="M173.088 158.699C173.875 159.093 174.194 160.05 173.8 160.838L167.425 173.588C167.032 174.375 166.074 174.694 165.287 174.3 164.5 173.907 164.181 172.949 164.574 172.162L170.949 159.412C171.343 158.625 172.3 158.306 173.088 158.699Z" fill="#000000" fill-rule="evenodd" fill-opacity="0.2"/><path d="M183.229 253.52C183.229 254.314 183.668 254.8 184.406 254.8 185.144 254.8 185.592 254.314 185.592 253.52L185.592 252.325 186.218 252.325C186.899 252.325 187.301 251.942 187.301 251.316 187.301 250.681 186.89 250.27 186.218 250.27L185.592 250.27 185.592 243.547C185.592 242.436 184.835 241.763 183.575 241.763 182.604 241.763 182.006 242.155 181.222 243.295 179.559 245.751 178.56 247.45 177.496 249.467 177.15 250.168 177.038 250.532 177.038 250.943 177.038 251.811 177.617 252.325 178.569 252.325L183.229 252.325 183.229 253.52ZM179.345 250.27 179.345 250.205C180.166 248.72 181.978 245.629 183.099 243.93L183.229 243.93 183.229 250.27 179.345 250.27Z" fill="#061311"/><path d="M167.298 253.558C167.298 254.239 167.83 254.688 168.652 254.688L174.946 254.688C175.684 254.688 176.123 254.305 176.123 253.67 176.123 253.025 175.675 252.633 174.946 252.633L170.567 252.633 170.567 252.512 173.536 249.337C175.133 247.656 175.712 246.6 175.712 245.321 175.712 243.22 173.938 241.698 171.472 241.698 168.951 241.698 167.158 243.332 167.158 245.013 167.158 245.639 167.587 246.087 168.213 246.087 168.699 246.087 169.016 245.835 169.315 245.256 169.679 244.275 170.38 243.752 171.332 243.752 172.481 243.752 173.256 244.471 173.256 245.536 173.256 246.32 172.845 247.03 171.818 248.123L168.335 251.877C167.55 252.68 167.298 253.081 167.298 253.558Z" fill="#061311"/><path d="M155.728 248.627C155.728 252.474 157.53 254.958 160.556 254.958 163.581 254.958 165.43 252.446 165.43 248.627L165.43 248.029C165.43 244.172 163.637 241.698 160.593 241.698 157.558 241.698 155.728 244.201 155.728 248.029L155.728 248.627ZM158.249 248.039C158.249 245.349 159.127 243.752 160.574 243.752 162.022 243.752 162.9 245.358 162.9 248.039L162.9 248.608C162.9 251.298 162.022 252.904 160.574 252.904 159.127 252.904 158.249 251.298 158.249 248.608L158.249 248.039Z" fill="#061311"/><path d="M145.502 253.558C145.502 254.239 146.035 254.688 146.856 254.688L153.15 254.688C153.888 254.688 154.327 254.305 154.327 253.67 154.327 253.025 153.879 252.633 153.15 252.633L148.771 252.633 148.771 252.512 151.74 249.337C153.337 247.656 153.916 246.6 153.916 245.321 153.916 243.22 152.142 241.698 149.676 241.698 147.155 241.698 145.362 243.332 145.362 245.013 145.362 245.639 145.792 246.087 146.417 246.087 146.903 246.087 147.221 245.835 147.519 245.256 147.884 244.275 148.584 243.752 149.536 243.752 150.685 243.752 151.46 244.471 151.46 245.536 151.46 246.32 151.049 247.03 150.022 248.123L146.539 251.877C145.754 252.68 145.502 253.081 145.502 253.558Z" fill="#061311"/><path d="M149.234 231.305C148.954 231.824 148.548 232.181 148.015 232.375L147.636 231.805C148.104 231.666 148.454 231.384 148.688 230.958 148.921 230.532 149.038 230.009 149.038 229.388 149.038 228.758 148.917 228.265 148.673 227.909 148.431 227.552 148.109 227.374 147.707 227.374 147.361 227.374 147.085 227.527 146.879 227.833 146.674 228.138 146.501 228.675 146.361 229.444 146.184 230.416 145.945 231.101 145.646 231.5 145.347 231.898 144.922 232.097 144.371 232.097 144.006 232.097 143.67 231.986 143.362 231.764 143.054 231.541 142.811 231.227 142.633 230.819 142.455 230.412 142.367 229.949 142.367 229.43 142.367 228.698 142.507 228.113 142.787 227.673 143.068 227.233 143.497 226.93 144.076 226.763L144.427 227.36C143.464 227.619 142.983 228.309 142.983 229.43 142.983 229.801 143.044 230.136 143.166 230.437 143.287 230.738 143.448 230.974 143.649 231.146 143.85 231.317 144.067 231.403 144.301 231.403 144.684 231.403 144.983 231.245 145.198 230.93 145.413 230.616 145.59 230.06 145.73 229.263 145.889 228.319 146.118 227.652 146.417 227.263 146.716 226.874 147.136 226.68 147.679 226.68 148.277 226.68 148.755 226.932 149.115 227.437 149.475 227.941 149.655 228.619 149.655 229.472 149.655 230.175 149.515 230.787 149.234 231.305ZM146.305 219.946 146.305 225.461C147.164 225.415 147.835 225.163 148.316 224.704 148.797 224.246 149.038 223.632 149.038 222.864 149.038 222.317 148.926 221.847 148.701 221.454 148.477 221.06 148.16 220.775 147.749 220.599L148.057 220.016C148.571 220.275 148.966 220.646 149.241 221.127 149.517 221.609 149.655 222.188 149.655 222.864 149.655 223.892 149.332 224.695 148.688 225.274 148.043 225.853 147.151 226.142 146.011 226.142 144.871 226.142 143.978 225.862 143.334 225.302 142.689 224.742 142.367 223.957 142.367 222.947 142.367 222.003 142.684 221.262 143.32 220.725 143.955 220.187 144.796 219.919 145.842 219.919 146.001 219.919 146.156 219.928 146.305 219.947L146.305 219.946ZM143.691 224.725C144.163 225.161 144.824 225.406 145.674 225.461L145.674 220.571C144.833 220.618 144.175 220.847 143.698 221.259 143.222 221.671 142.983 222.234 142.983 222.947 142.983 223.697 143.219 224.29 143.691 224.725ZM149.255 218.298C148.989 218.835 148.594 219.228 148.071 219.478L147.44 218.575C147.851 218.418 148.16 218.145 148.365 217.756 148.571 217.367 148.673 216.909 148.673 216.381 148.673 215.834 148.576 215.417 148.379 215.131 148.183 214.843 147.935 214.7 147.636 214.7 147.365 214.7 147.148 214.834 146.985 215.103 146.821 215.371 146.679 215.844 146.557 216.519 146.436 217.187 146.289 217.714 146.116 218.103 145.943 218.492 145.723 218.775 145.457 218.951 145.191 219.127 144.861 219.214 144.469 219.214 144.086 219.214 143.736 219.103 143.418 218.881 143.1 218.659 142.846 218.339 142.654 217.923 142.462 217.506 142.367 217.024 142.367 216.478 142.367 215.737 142.504 215.142 142.78 214.693 143.056 214.244 143.479 213.922 144.048 213.727L144.609 214.672C144.161 214.82 143.838 215.045 143.642 215.346 143.446 215.647 143.348 216.024 143.348 216.478 143.348 216.932 143.45 217.316 143.656 217.631 143.862 217.946 144.1 218.103 144.371 218.103 144.679 218.103 144.918 217.967 145.086 217.693 145.254 217.42 145.399 216.932 145.52 216.228 145.679 215.264 145.917 214.584 146.235 214.186 146.553 213.788 147.001 213.588 147.58 213.588 147.982 213.588 148.34 213.706 148.652 213.943 148.966 214.179 149.211 214.517 149.388 214.957 149.566 215.397 149.655 215.908 149.655 216.492 149.655 217.159 149.522 217.761 149.255 218.298L149.255 218.298ZM149.255 211.954C148.989 212.491 148.594 212.884 148.071 213.135L147.44 212.232C147.851 212.074 148.16 211.801 148.365 211.412 148.571 211.023 148.673 210.564 148.673 210.037 148.673 209.49 148.576 209.074 148.379 208.787 148.183 208.499 147.935 208.356 147.636 208.356 147.365 208.356 147.148 208.49 146.985 208.758 146.821 209.027 146.679 209.499 146.557 210.175 146.436 210.842 146.289 211.37 146.116 211.759 145.943 212.148 145.723 212.43 145.457 212.607 145.191 212.782 144.861 212.87 144.469 212.87 144.086 212.87 143.736 212.759 143.418 212.537 143.1 212.315 142.846 211.995 142.654 211.578 142.462 211.162 142.367 210.68 142.367 210.134 142.367 209.393 142.504 208.798 142.78 208.349 143.056 207.899 143.479 207.578 144.048 207.383L144.609 208.328C144.161 208.476 143.838 208.701 143.642 209.002 143.446 209.302 143.348 209.68 143.348 210.134 143.348 210.587 143.45 210.972 143.656 211.287 143.862 211.602 144.1 211.759 144.371 211.759 144.679 211.759 144.918 211.622 145.086 211.349 145.254 211.076 145.399 210.587 145.52 209.884 145.679 208.921 145.917 208.24 146.235 207.842 146.553 207.444 147.001 207.244 147.58 207.244 147.982 207.244 148.34 207.362 148.652 207.599 148.966 207.835 149.211 208.173 149.388 208.613 149.566 209.052 149.655 209.564 149.655 210.148 149.655 210.814 149.522 211.417 149.255 211.954L149.255 211.954ZM141.085 206.29C140.921 206.466 140.689 206.554 140.39 206.554 140.091 206.554 139.863 206.466 139.704 206.29 139.545 206.114 139.465 205.869 139.465 205.554 139.465 205.239 139.545 204.996 139.704 204.825 139.863 204.653 140.091 204.568 140.39 204.568 140.689 204.568 140.921 204.653 141.085 204.825 141.248 204.996 141.329 205.239 141.329 205.554 141.329 205.869 141.248 206.114 141.084 206.29L141.085 206.29ZM149.515 204.818 149.515 206.304 142.507 206.304 142.507 204.818 149.515 204.818ZM143.334 197.876C143.978 197.265 144.871 196.96 146.011 196.96 147.151 196.96 148.043 197.265 148.688 197.876 149.332 198.488 149.655 199.335 149.655 200.418 149.655 201.502 149.332 202.349 148.688 202.961 148.043 203.572 147.151 203.877 146.011 203.877 144.871 203.877 143.978 203.572 143.334 202.961 142.689 202.349 142.367 201.502 142.367 200.418 142.367 199.335 142.689 198.488 143.334 197.876ZM144.182 201.87C144.607 202.208 145.217 202.377 146.011 202.377 146.805 202.377 147.414 202.208 147.84 201.87 148.265 201.532 148.477 201.048 148.477 200.419 148.477 199.789 148.262 199.303 147.833 198.96 147.403 198.617 146.796 198.446 146.011 198.446 145.226 198.446 144.618 198.617 144.189 198.96 143.759 199.302 143.544 199.789 143.544 200.418 143.544 201.048 143.757 201.532 144.182 201.87ZM143.026 190.233C143.465 189.775 144.095 189.546 144.918 189.546L149.515 189.546 149.515 191.449 145.478 191.449C144.413 191.449 143.88 191.861 143.88 192.685 143.88 193.13 144.039 193.507 144.357 193.817 144.675 194.128 145.16 194.283 145.814 194.283L149.515 194.283 149.515 196.186 142.507 196.186 142.507 194.477 143.754 194.422C143.296 194.19 142.951 193.871 142.717 193.463 142.483 193.056 142.367 192.583 142.367 192.046 142.367 191.296 142.586 190.692 143.026 190.233ZM140.475 188.786C139.783 188.786 139.438 188.392 139.438 187.605 139.438 186.818 139.783 186.424 140.475 186.424 141.157 186.424 141.498 186.818 141.498 187.605 141.498 188.392 141.157 188.786 140.475 188.786ZM149.515 186.661 149.515 188.564 142.507 188.564 142.507 186.661 149.515 186.661ZM148.057 186.123 144.89 183.372 144.147 182.622 144.175 183.734 144.175 186.109 142.507 186.109 142.507 180.011 143.964 180.011 147.104 182.748 147.875 183.498 147.847 182.275 147.847 179.886 149.515 179.886 149.515 186.123 148.057 186.123ZM146.697 172.944 146.697 177.682C147.136 177.607 147.459 177.447 147.664 177.202 147.87 176.957 147.973 176.63 147.973 176.223 147.973 175.88 147.908 175.6 147.777 175.382 147.646 175.165 147.454 175.019 147.202 174.945L147.819 173.028C148.417 173.222 148.872 173.6 149.185 174.16 149.498 174.72 149.655 175.408 149.655 176.223 149.655 177.436 149.337 178.364 148.702 179.008 148.066 179.652 147.169 179.974 146.011 179.974 144.852 179.974 143.955 179.659 143.32 179.029 142.684 178.399 142.367 177.505 142.367 176.348 142.367 175.227 142.677 174.368 143.299 173.771 143.92 173.174 144.791 172.875 145.912 172.875 146.23 172.875 146.492 172.898 146.697 172.944ZM145.408 177.695 145.408 175.084C144.492 175.195 144.035 175.621 144.035 176.362 144.035 177.112 144.492 177.557 145.408 177.695L145.408 177.695Z" fill="#FFFFFF" fill-rule="evenodd"/><path d="M163.875 228.891 158.259 228.891 158.259 228.822 162.81 226.786 162.81 225.691 158.259 223.661 158.259 223.593 163.875 223.593 163.875 222.08 155.377 222.08 155.377 223.78 160.862 226.208 160.862 226.257 155.377 228.679 155.377 230.391 163.875 230.391 163.875 228.891Z" fill="#FFFFFF"/><path d="M160.202 213.308 159.112 213.308C156.709 213.308 155.215 214.665 155.215 216.944 155.215 219.21 156.697 220.592 159.112 220.592L160.202 220.592C162.599 220.592 164.037 219.229 164.037 216.956 164.037 214.684 162.599 213.308 160.202 213.308ZM159.1 215.014 160.208 215.014C161.845 215.014 162.636 215.823 162.636 216.95 162.636 218.071 161.845 218.88 160.208 218.88L159.1 218.88C157.463 218.88 156.616 218.071 156.616 216.95 156.616 215.823 157.463 215.014 159.1 215.014Z" fill="#FFFFFF"/><path d="M161.46 212.38C162.642 212.356 164.037 211.552 164.037 209.087 164.037 207.039 163.041 205.719 161.372 205.719 159.853 205.719 159.249 206.746 158.975 208.004L158.67 209.324C158.502 210.089 158.154 210.488 157.643 210.488 156.952 210.488 156.523 209.909 156.523 209.006 156.523 207.985 157.089 207.481 157.724 207.425L157.724 205.844C156.199 205.868 155.203 207.176 155.203 209 155.203 210.749 156.118 212.169 157.774 212.169 159.2 212.169 159.859 211.179 160.121 210.015L160.426 208.701C160.625 207.823 160.93 207.394 161.528 207.394 162.231 207.394 162.705 207.96 162.705 208.994 162.705 210.108 162.119 210.7 161.46 210.756L161.46 212.38Z" fill="#FFFFFF"/><path d="M163.875 201.038 156.784 201.038 156.784 198.622 155.377 198.622 155.377 205.134 156.784 205.134 156.784 202.718 163.875 202.718 163.875 201.038Z" fill="#FFFFFF"/><path d="M176.625 226.332 174.44 225.66 174.44 222.827 176.625 222.161 176.625 220.374 168.127 223.207 168.127 225.18 176.625 228.032 176.625 226.332ZM169.752 224.197 173.188 223.163 173.188 225.311 169.752 224.271 169.752 224.197Z" fill="#FFFFFF"/><path d="M171.9 218.152C170.281 218.152 169.385 217.479 169.385 216.29 169.385 215.257 170.101 214.603 171.109 214.584L171.109 212.966 170.953 212.966C169.179 212.966 167.965 214.366 167.965 216.303 167.965 218.569 169.466 219.857 171.906 219.857L172.877 219.857C175.299 219.857 176.787 218.569 176.787 216.303 176.787 214.373 175.604 212.966 173.898 212.966L173.736 212.966 173.736 214.584C174.689 214.603 175.367 215.257 175.367 216.29 175.367 217.479 174.483 218.152 172.89 218.152L171.9 218.152Z" fill="#FFFFFF"/><path d="M176.625 208.259 169.534 208.259 169.534 205.844 168.127 205.844 168.127 212.356 169.534 212.356 169.534 209.94 176.625 209.94 176.625 208.259Z" fill="#FFFFFF"/><path d="M176.625 203.167 168.127 203.167 168.127 204.848 176.625 204.848 176.625 203.167Z" fill="#FFFFFF"/><path d="M176.625 199.375 176.625 197.352 168.127 194.532 168.127 196.399 174.726 198.286 174.726 198.354 168.127 200.266 168.127 202.214 176.625 199.375Z" fill="#FFFFFF"/><path d="M175.249 187.995 175.249 191.799 172.971 191.799 172.971 188.225 171.682 188.225 171.682 191.799 169.503 191.799 169.503 187.995 168.127 187.995 168.127 193.467 176.625 193.467 176.625 187.995 175.249 187.995Z" fill="#FFFFFF"/><path d="M186.96 225.633C188.142 225.608 189.537 224.805 189.537 222.339 189.537 220.291 188.541 218.971 186.872 218.971 185.353 218.971 184.749 219.999 184.475 221.256L184.17 222.576C184.002 223.342 183.654 223.74 183.143 223.74 182.452 223.74 182.023 223.161 182.023 222.258 182.023 221.237 182.589 220.733 183.224 220.677L183.224 219.096C181.699 219.121 180.703 220.428 180.703 222.252 180.703 224.002 181.618 225.421 183.274 225.421 184.7 225.421 185.359 224.431 185.621 223.267L185.926 221.953C186.125 221.076 186.43 220.646 187.028 220.646 187.731 220.646 188.205 221.212 188.205 222.246 188.205 223.36 187.619 223.952 186.96 224.008L186.96 225.633Z" fill="#FFFFFF"/><path d="M180.877 214.178 180.877 217.577 189.375 217.577 189.375 215.896 186.524 215.896 186.524 214.196C186.524 212.366 185.328 211.308 183.71 211.308 182.116 211.308 180.877 212.353 180.877 214.178ZM183.71 213.02C184.861 213.02 185.204 213.723 185.204 214.894L185.204 215.902 182.216 215.902 182.216 214.501C182.216 213.574 182.757 213.02 183.71 213.02Z" fill="#FFFFFF"/><path d="M187.999 204.646 187.999 208.45 185.721 208.45 185.721 204.877 184.432 204.877 184.432 208.45 182.253 208.45 182.253 204.646 180.877 204.646 180.877 210.118 189.375 210.118 189.375 204.646 187.999 204.646Z" fill="#FFFFFF"/><path d="M189.375 202.206 187.19 201.533 187.19 198.701 189.375 198.035 189.375 196.248 180.877 199.081 180.877 201.054 189.375 203.905 189.375 202.206ZM182.502 200.07 185.938 199.037 185.938 201.185 182.502 200.145 182.502 200.07Z" fill="#FFFFFF"/><path d="M180.877 188.416 180.877 190.265 184.681 193.484 184.681 193.558 180.877 193.558 180.877 195.239 189.375 195.239 189.375 193.558 186.648 193.558 185.658 192.687 189.375 190.309 189.375 188.285 184.538 191.448 180.877 188.416Z" fill="#FFFFFF"/><path d="M187.999 181.935 187.999 185.739 185.721 185.739 185.721 182.166 184.432 182.166 184.432 185.739 182.253 185.739 182.253 181.935 180.877 181.935 180.877 187.408 189.375 187.408 189.375 181.935 187.999 181.935Z" fill="#FFFFFF"/><path d="M180.877 176.992 180.877 180.385 189.375 180.385 189.375 178.729 186.206 178.729 186.206 177.216 189.375 175.728 189.375 173.848 185.951 175.56C185.696 174.913 184.961 174.01 183.567 174.01 182.066 174.01 180.877 174.975 180.877 176.992ZM184.942 178.729 182.197 178.729 182.197 177.235C182.197 176.37 182.664 175.747 183.598 175.747 184.475 175.747 184.942 176.314 184.942 177.26L184.942 178.729Z" fill="#FFFFFF"/></g></svg>