<svg width="68" height="102" xmlns="http://www.w3.org/2000/svg" xmlns:xlink="http://www.w3.org/1999/xlink" xml:space="preserve" overflow="hidden"><defs><linearGradient x1="205" y1="164.375" x2="273" y2="260" gradientUnits="userSpaceOnUse" spreadMethod="pad" id="fill0"><stop offset="0" stop-color="#1AB394"/><stop offset="1" stop-color="#3B7C6C"/></linearGradient><linearGradient x1="205" y1="230.25" x2="273" y2="260" gradientUnits="userSpaceOnUse" spreadMethod="pad" id="fill1"><stop offset="0" stop-color="#FBEEAF"/><stop offset="1" stop-color="#F6D451"/></linearGradient></defs><g transform="translate(-205 -158)"><path d="M231.912 158.699C231.125 159.093 230.806 160.05 231.2 160.838L234.387 167.213C234.781 168 235.738 168.319 236.525 167.925 237.313 167.532 237.632 166.574 237.238 165.787L234.05 159.412C233.657 158.625 232.7 158.306 231.912 158.699Z" fill="#197E6B" fill-rule="evenodd"/><path d="M231.912 158.699C231.125 159.093 230.806 160.05 231.2 160.838L234.387 167.213C234.781 168 235.738 168.319 236.525 167.925 237.313 167.532 237.632 166.574 237.238 165.787L234.05 159.412C233.657 158.625 232.7 158.306 231.912 158.699Z" fill="#000000" fill-rule="evenodd" fill-opacity="0.2"/><path d="M208.188 164.375C206.427 164.375 205 165.802 205 167.562L205 256.812C205 258.573 206.427 260 208.188 260L269.812 260C271.573 260 273 258.573 273 256.812L273 167.562C273 165.802 271.573 164.375 269.812 164.375L208.188 164.375ZM239 176.062C240.76 176.062 242.188 174.635 242.188 172.875 242.188 171.115 240.76 169.688 239 169.688 237.24 169.688 235.812 171.115 235.812 172.875 235.812 174.635 237.24 176.062 239 176.062Z" fill="url(#fill0)" fill-rule="evenodd"/><path d="M205 238.75 273 230.25 273 256.812C273 258.573 271.657 260 270 260L208 260C206.343 260 205 258.573 205 256.812L205 238.75Z" fill="url(#fill1)"/><path d="M246.088 158.699C246.875 159.093 247.194 160.05 246.8 160.838L240.425 173.588C240.032 174.375 239.074 174.694 238.287 174.3 237.5 173.907 237.181 172.949 237.574 172.162L243.949 159.412C244.343 158.625 245.3 158.306 246.088 158.699Z" fill="#197E6B" fill-rule="evenodd"/><path d="M246.088 158.699C246.875 159.093 247.194 160.05 246.8 160.838L240.425 173.588C240.032 174.375 239.074 174.694 238.287 174.3 237.5 173.907 237.181 172.949 237.574 172.162L243.949 159.412C244.343 158.625 245.3 158.306 246.088 158.699Z" fill="#000000" fill-rule="evenodd" fill-opacity="0.2"/><path d="M218.259 253.558C218.259 253.081 218.512 252.68 219.296 251.877L222.779 248.123C223.806 247.03 224.217 246.32 224.217 245.536 224.217 244.471 223.442 243.752 222.294 243.752 221.341 243.752 220.641 244.275 220.277 245.256 219.978 245.835 219.66 246.087 219.175 246.087 218.549 246.087 218.119 245.639 218.119 245.013 218.119 243.332 219.912 241.698 222.434 241.698 224.899 241.698 226.673 243.22 226.673 245.321 226.673 246.6 226.094 247.656 224.498 249.337L221.528 252.512 221.528 252.633 225.908 252.633C226.636 252.633 227.084 253.025 227.084 253.67 227.084 254.305 226.645 254.688 225.908 254.688L219.614 254.688C218.792 254.688 218.259 254.239 218.259 253.558ZM228.485 248.627 228.485 248.029C228.485 244.201 230.315 241.698 233.35 241.698 236.395 241.698 238.188 244.172 238.188 248.029L238.188 248.627C238.188 252.446 236.339 254.958 233.313 254.958 230.287 254.958 228.485 252.474 228.485 248.627ZM231.006 248.039 231.006 248.608C231.006 251.298 231.884 252.904 233.332 252.904 234.779 252.904 235.657 251.298 235.657 248.608L235.657 248.039C235.657 245.358 234.779 243.752 233.332 243.752 231.884 243.752 231.006 245.349 231.006 248.039ZM240.055 253.558C240.055 253.081 240.307 252.68 241.092 251.877L244.575 248.123C245.602 247.03 246.013 246.32 246.013 245.536 246.013 244.471 245.238 243.752 244.089 243.752 243.137 243.752 242.437 244.275 242.072 245.256 241.774 245.835 241.456 246.087 240.97 246.087 240.345 246.087 239.915 245.639 239.915 245.013 239.915 243.332 241.708 241.698 244.23 241.698 246.695 241.698 248.469 243.22 248.469 245.321 248.469 246.6 247.89 247.656 246.293 249.337L243.324 252.512 243.324 252.633 247.703 252.633C248.432 252.633 248.88 253.025 248.88 253.67 248.88 254.305 248.441 254.688 247.703 254.688L241.409 254.688C240.587 254.688 240.055 254.239 240.055 253.558ZM250.776 252.101C250.776 251.475 251.177 250.98 251.803 250.98 252.195 250.98 252.494 251.148 252.802 251.587 253.39 252.465 254.138 252.904 255.09 252.904 256.5 252.904 257.499 251.923 257.499 250.513 257.499 249.15 256.538 248.216 255.193 248.216 254.567 248.216 253.932 248.449 253.381 248.879 252.83 249.346 252.559 249.458 252.214 249.458 251.448 249.458 250.925 248.907 250.981 248.048L251.327 243.248C251.392 242.361 251.924 241.931 252.952 241.931L258.237 241.931C258.984 241.931 259.423 242.314 259.423 242.968 259.423 243.622 258.993 243.986 258.237 243.986L253.409 243.986 253.148 247.282 253.278 247.282C253.717 246.685 254.754 246.274 255.846 246.274 258.274 246.274 259.946 247.955 259.946 250.42 259.946 253.137 257.994 254.958 255.099 254.958 252.569 254.958 250.776 253.53 250.776 252.101Z" fill="#061311"/><path d="M222.234 231.305C221.954 231.824 221.548 232.181 221.015 232.375L220.636 231.805C221.104 231.666 221.454 231.384 221.688 230.958 221.921 230.532 222.038 230.009 222.038 229.388 222.038 228.758 221.917 228.265 221.673 227.909 221.431 227.552 221.109 227.374 220.707 227.374 220.361 227.374 220.085 227.527 219.879 227.833 219.674 228.138 219.501 228.675 219.361 229.444 219.184 230.416 218.945 231.101 218.646 231.5 218.347 231.898 217.922 232.097 217.371 232.097 217.006 232.097 216.67 231.986 216.362 231.764 216.054 231.541 215.811 231.227 215.633 230.819 215.455 230.412 215.367 229.949 215.367 229.43 215.367 228.698 215.507 228.113 215.787 227.673 216.068 227.233 216.497 226.93 217.076 226.763L217.427 227.36C216.464 227.619 215.983 228.309 215.983 229.43 215.983 229.801 216.044 230.136 216.166 230.437 216.287 230.738 216.448 230.974 216.649 231.146 216.85 231.317 217.067 231.403 217.301 231.403 217.684 231.403 217.983 231.245 218.198 230.93 218.413 230.616 218.59 230.06 218.73 229.263 218.889 228.319 219.118 227.652 219.417 227.263 219.716 226.874 220.136 226.68 220.679 226.68 221.277 226.68 221.755 226.932 222.115 227.437 222.475 227.941 222.655 228.619 222.655 229.472 222.655 230.175 222.515 230.787 222.234 231.305ZM219.305 219.946 219.305 225.461C220.164 225.415 220.835 225.163 221.316 224.704 221.797 224.246 222.038 223.632 222.038 222.864 222.038 222.317 221.926 221.847 221.701 221.454 221.477 221.06 221.16 220.775 220.749 220.599L221.057 220.016C221.571 220.275 221.966 220.646 222.241 221.127 222.517 221.609 222.655 222.188 222.655 222.864 222.655 223.892 222.332 224.695 221.688 225.274 221.043 225.853 220.151 226.142 219.011 226.142 217.871 226.142 216.978 225.862 216.334 225.302 215.689 224.742 215.367 223.957 215.367 222.947 215.367 222.003 215.684 221.262 216.32 220.725 216.955 220.187 217.796 219.919 218.842 219.919 219.001 219.919 219.156 219.928 219.305 219.947L219.305 219.946ZM216.691 224.725C217.163 225.161 217.824 225.406 218.674 225.461L218.674 220.571C217.833 220.618 217.175 220.847 216.698 221.259 216.222 221.671 215.983 222.234 215.983 222.947 215.983 223.697 216.219 224.29 216.691 224.725L216.691 224.725ZM222.255 218.298C221.989 218.835 221.594 219.228 221.071 219.478L220.44 218.575C220.851 218.418 221.16 218.145 221.365 217.756 221.571 217.367 221.673 216.909 221.673 216.381 221.673 215.834 221.576 215.417 221.379 215.131 221.183 214.843 220.935 214.7 220.636 214.7 220.365 214.7 220.148 214.834 219.985 215.103 219.821 215.371 219.679 215.844 219.557 216.519 219.436 217.187 219.289 217.714 219.116 218.103 218.943 218.492 218.723 218.775 218.457 218.951 218.191 219.127 217.861 219.214 217.469 219.214 217.086 219.214 216.736 219.103 216.418 218.881 216.1 218.659 215.846 218.339 215.654 217.923 215.462 217.506 215.367 217.024 215.367 216.478 215.367 215.737 215.504 215.142 215.78 214.693 216.056 214.244 216.479 213.922 217.048 213.727L217.609 214.672C217.161 214.82 216.838 215.045 216.642 215.346 216.446 215.647 216.348 216.024 216.348 216.478 216.348 216.932 216.45 217.316 216.656 217.631 216.862 217.946 217.1 218.103 217.371 218.103 217.679 218.103 217.918 217.967 218.086 217.693 218.254 217.42 218.399 216.932 218.52 216.228 218.679 215.264 218.917 214.584 219.235 214.186 219.553 213.788 220.001 213.588 220.58 213.588 220.982 213.588 221.34 213.706 221.652 213.943 221.966 214.179 222.211 214.517 222.388 214.957 222.566 215.397 222.655 215.908 222.655 216.492 222.655 217.159 222.522 217.761 222.255 218.298L222.255 218.298ZM222.255 211.954C221.989 212.491 221.594 212.884 221.071 213.135L220.44 212.232C220.851 212.074 221.16 211.801 221.365 211.412 221.571 211.023 221.673 210.564 221.673 210.037 221.673 209.49 221.576 209.074 221.379 208.787 221.183 208.499 220.935 208.356 220.636 208.356 220.365 208.356 220.148 208.49 219.985 208.758 219.821 209.027 219.679 209.499 219.557 210.175 219.436 210.842 219.289 211.37 219.116 211.759 218.943 212.148 218.723 212.43 218.457 212.607 218.191 212.782 217.861 212.87 217.469 212.87 217.086 212.87 216.736 212.759 216.418 212.537 216.1 212.315 215.846 211.995 215.654 211.578 215.462 211.162 215.367 210.68 215.367 210.134 215.367 209.393 215.504 208.798 215.78 208.349 216.056 207.899 216.479 207.578 217.048 207.383L217.609 208.328C217.161 208.476 216.838 208.701 216.642 209.002 216.446 209.302 216.348 209.68 216.348 210.134 216.348 210.587 216.45 210.972 216.656 211.287 216.862 211.602 217.1 211.759 217.371 211.759 217.679 211.759 217.918 211.622 218.086 211.349 218.254 211.076 218.399 210.587 218.52 209.884 218.679 208.921 218.917 208.24 219.235 207.842 219.553 207.444 220.001 207.244 220.58 207.244 220.982 207.244 221.34 207.362 221.652 207.599 221.966 207.835 222.211 208.173 222.388 208.613 222.566 209.052 222.655 209.564 222.655 210.148 222.655 210.814 222.522 211.417 222.255 211.954L222.255 211.954ZM214.085 206.29C213.921 206.466 213.689 206.554 213.39 206.554 213.091 206.554 212.863 206.466 212.704 206.29 212.545 206.114 212.465 205.869 212.465 205.554 212.465 205.239 212.545 204.996 212.704 204.825 212.863 204.653 213.091 204.568 213.39 204.568 213.689 204.568 213.921 204.653 214.085 204.825 214.248 204.996 214.329 205.239 214.329 205.554 214.329 205.869 214.248 206.114 214.084 206.29L214.085 206.29ZM222.515 204.818 222.515 206.304 215.507 206.304 215.507 204.818 222.515 204.818ZM216.334 197.876C216.978 197.265 217.871 196.96 219.011 196.96 220.151 196.96 221.043 197.265 221.688 197.876 222.332 198.488 222.655 199.335 222.655 200.418 222.655 201.502 222.332 202.349 221.688 202.961 221.043 203.572 220.151 203.877 219.011 203.877 217.871 203.877 216.978 203.572 216.334 202.961 215.689 202.349 215.367 201.502 215.367 200.418 215.367 199.335 215.689 198.488 216.334 197.876L216.334 197.876ZM217.182 201.87C217.607 202.208 218.217 202.377 219.011 202.377 219.805 202.377 220.414 202.208 220.84 201.87 221.265 201.532 221.477 201.048 221.477 200.419 221.477 199.789 221.262 199.303 220.833 198.96 220.403 198.617 219.796 198.446 219.011 198.446 218.226 198.446 217.618 198.617 217.189 198.96 216.759 199.302 216.544 199.789 216.544 200.418 216.544 201.048 216.757 201.532 217.182 201.87L217.182 201.87ZM216.026 190.233C216.465 189.775 217.095 189.546 217.918 189.546L222.515 189.546 222.515 191.449 218.478 191.449C217.413 191.449 216.88 191.861 216.88 192.685 216.88 193.13 217.039 193.507 217.357 193.817 217.675 194.128 218.16 194.283 218.814 194.283L222.515 194.283 222.515 196.186 215.507 196.186 215.507 194.477 216.754 194.422C216.296 194.19 215.951 193.871 215.717 193.463 215.483 193.056 215.367 192.583 215.367 192.046 215.367 191.296 215.586 190.692 216.026 190.233L216.026 190.233ZM213.475 188.786C212.783 188.786 212.438 188.392 212.438 187.605 212.438 186.818 212.783 186.424 213.475 186.424 214.157 186.424 214.498 186.818 214.498 187.605 214.498 188.392 214.157 188.786 213.475 188.786ZM222.515 186.661 222.515 188.564 215.507 188.564 215.507 186.661 222.515 186.661ZM221.057 186.123 217.89 183.372 217.147 182.622 217.175 183.734 217.175 186.109 215.507 186.109 215.507 180.011 216.964 180.011 220.104 182.748 220.875 183.498 220.847 182.275 220.847 179.886 222.515 179.886 222.515 186.123 221.057 186.123 221.057 186.123ZM219.697 172.944 219.697 177.682C220.136 177.607 220.459 177.447 220.664 177.202 220.87 176.957 220.973 176.63 220.973 176.223 220.973 175.88 220.908 175.6 220.777 175.382 220.646 175.165 220.454 175.019 220.202 174.945L220.819 173.028C221.417 173.222 221.872 173.6 222.185 174.16 222.498 174.72 222.655 175.408 222.655 176.223 222.655 177.436 222.337 178.364 221.702 179.008 221.066 179.652 220.169 179.974 219.011 179.974 217.852 179.974 216.955 179.659 216.32 179.029 215.684 178.399 215.367 177.505 215.367 176.348 215.367 175.227 215.677 174.368 216.299 173.771 216.92 173.174 217.791 172.875 218.912 172.875 219.23 172.875 219.492 172.898 219.697 172.944L219.697 172.944ZM218.408 177.695 218.408 175.084C217.492 175.195 217.035 175.621 217.035 176.362 217.035 177.112 217.492 177.557 218.408 177.695L218.408 177.695Z" fill="#FFFFFF" fill-rule="evenodd"/><path d="M236.875 228.891 231.259 228.891 231.259 228.822 235.81 226.786 235.81 225.691 231.259 223.661 231.259 223.593 236.875 223.593 236.875 222.08 228.377 222.08 228.377 223.78 233.862 226.208 233.862 226.257 228.377 228.679 228.377 230.391 236.875 230.391 236.875 228.891Z" fill="#FFFFFF"/><path d="M233.202 213.308 232.112 213.308C229.709 213.308 228.215 214.665 228.215 216.944 228.215 219.21 229.697 220.592 232.112 220.592L233.202 220.592C235.599 220.592 237.037 219.229 237.037 216.956 237.037 214.684 235.599 213.308 233.202 213.308ZM232.1 215.014 233.208 215.014C234.845 215.014 235.636 215.823 235.636 216.95 235.636 218.071 234.845 218.88 233.208 218.88L232.1 218.88C230.463 218.88 229.616 218.071 229.616 216.95 229.616 215.823 230.463 215.014 232.1 215.014Z" fill="#FFFFFF"/><path d="M234.46 212.38C235.642 212.356 237.037 211.552 237.037 209.087 237.037 207.039 236.041 205.719 234.372 205.719 232.853 205.719 232.249 206.746 231.975 208.004L231.67 209.324C231.502 210.089 231.154 210.488 230.643 210.488 229.952 210.488 229.523 209.909 229.523 209.006 229.523 207.985 230.089 207.481 230.724 207.425L230.724 205.844C229.199 205.868 228.203 207.176 228.203 209 228.203 210.749 229.118 212.169 230.774 212.169 232.2 212.169 232.859 211.179 233.121 210.015L233.426 208.701C233.625 207.823 233.93 207.394 234.528 207.394 235.231 207.394 235.705 207.96 235.705 208.994 235.705 210.108 235.119 210.7 234.46 210.756L234.46 212.38Z" fill="#FFFFFF"/><path d="M236.875 201.038 229.784 201.038 229.784 198.622 228.377 198.622 228.377 205.134 229.784 205.134 229.784 202.718 236.875 202.718 236.875 201.038Z" fill="#FFFFFF"/><path d="M249.625 226.332 247.44 225.66 247.44 222.827 249.625 222.161 249.625 220.374 241.127 223.207 241.127 225.18 249.625 228.032 249.625 226.332ZM242.752 224.197 246.188 223.163 246.188 225.311 242.752 224.271 242.752 224.197Z" fill="#FFFFFF"/><path d="M244.9 218.152C243.281 218.152 242.385 217.479 242.385 216.29 242.385 215.257 243.101 214.603 244.109 214.584L244.109 212.966 243.953 212.966C242.179 212.966 240.965 214.366 240.965 216.303 240.965 218.569 242.466 219.857 244.906 219.857L245.877 219.857C248.299 219.857 249.787 218.569 249.787 216.303 249.787 214.373 248.604 212.966 246.898 212.966L246.736 212.966 246.736 214.584C247.689 214.603 248.367 215.257 248.367 216.29 248.367 217.479 247.483 218.152 245.89 218.152L244.9 218.152Z" fill="#FFFFFF"/><path d="M249.625 208.259 242.534 208.259 242.534 205.844 241.127 205.844 241.127 212.356 242.534 212.356 242.534 209.94 249.625 209.94 249.625 208.259Z" fill="#FFFFFF"/><path d="M249.625 203.167 241.127 203.167 241.127 204.848 249.625 204.848 249.625 203.167Z" fill="#FFFFFF"/><path d="M249.625 199.375 249.625 197.352 241.127 194.532 241.127 196.399 247.726 198.286 247.726 198.354 241.127 200.266 241.127 202.214 249.625 199.375Z" fill="#FFFFFF"/><path d="M248.249 187.995 248.249 191.799 245.971 191.799 245.971 188.225 244.682 188.225 244.682 191.799 242.503 191.799 242.503 187.995 241.127 187.995 241.127 193.467 249.625 193.467 249.625 187.995 248.249 187.995Z" fill="#FFFFFF"/><path d="M259.96 225.633C261.142 225.608 262.537 224.805 262.537 222.339 262.537 220.291 261.541 218.971 259.872 218.971 258.353 218.971 257.749 219.999 257.475 221.256L257.17 222.576C257.002 223.342 256.654 223.74 256.143 223.74 255.452 223.74 255.023 223.161 255.023 222.258 255.023 221.237 255.589 220.733 256.224 220.677L256.224 219.096C254.699 219.121 253.703 220.428 253.703 222.252 253.703 224.002 254.618 225.421 256.274 225.421 257.7 225.421 258.359 224.431 258.621 223.267L258.926 221.953C259.125 221.076 259.43 220.646 260.028 220.646 260.731 220.646 261.205 221.212 261.205 222.246 261.205 223.36 260.619 223.952 259.96 224.008L259.96 225.633Z" fill="#FFFFFF"/><path d="M253.877 214.178 253.877 217.577 262.375 217.577 262.375 215.896 259.524 215.896 259.524 214.196C259.524 212.366 258.328 211.308 256.71 211.308 255.116 211.308 253.877 212.353 253.877 214.178ZM256.71 213.02C257.862 213.02 258.204 213.723 258.204 214.894L258.204 215.902 255.216 215.902 255.216 214.501C255.216 213.574 255.757 213.02 256.71 213.02Z" fill="#FFFFFF"/><path d="M260.999 204.646 260.999 208.45 258.721 208.45 258.721 204.877 257.432 204.877 257.432 208.45 255.253 208.45 255.253 204.646 253.877 204.646 253.877 210.118 262.375 210.118 262.375 204.646 260.999 204.646Z" fill="#FFFFFF"/><path d="M262.375 202.206 260.19 201.533 260.19 198.701 262.375 198.035 262.375 196.248 253.877 199.081 253.877 201.054 262.375 203.905 262.375 202.206ZM255.502 200.07 258.938 199.037 258.938 201.185 255.502 200.145 255.502 200.07Z" fill="#FFFFFF"/><path d="M253.877 188.416 253.877 190.265 257.681 193.484 257.681 193.558 253.877 193.558 253.877 195.239 262.375 195.239 262.375 193.558 259.648 193.558 258.658 192.687 262.375 190.309 262.375 188.285 257.538 191.448 253.877 188.416Z" fill="#FFFFFF"/><path d="M260.999 181.935 260.999 185.739 258.721 185.739 258.721 182.166 257.432 182.166 257.432 185.739 255.253 185.739 255.253 181.935 253.877 181.935 253.877 187.408 262.375 187.408 262.375 181.935 260.999 181.935Z" fill="#FFFFFF"/><path d="M253.877 176.992 253.877 180.385 262.375 180.385 262.375 178.729 259.206 178.729 259.206 177.216 262.375 175.728 262.375 173.848 258.951 175.56C258.696 174.913 257.961 174.01 256.567 174.01 255.066 174.01 253.877 174.975 253.877 176.992ZM257.942 178.729 255.197 178.729 255.197 177.235C255.197 176.37 255.664 175.747 256.598 175.747 257.475 175.747 257.942 176.314 257.942 177.26L257.942 178.729Z" fill="#FFFFFF"/></g></svg>