<?xml version="1.0" encoding="utf-8" ?><svg xmlns="http://www.w3.org/2000/svg" xmlns:xlink="http://www.w3.org/1999/xlink" width="100" height="100" viewBox="0 0 100 100"><path fill="#207647" d="M29.378 6.09665C30.5385 5.95603 32.1659 5.98461 33.3606 5.97382L66.1348 5.94446C71.5753 5.94963 77.7669 5.75165 83.1516 6.3167C84.5982 6.46851 86.5044 7.72226 87.5755 8.75459C90.3095 11.3894 90.0883 15.6662 90.1078 19.2368L90.0936 64.3152L90.1087 77.8811C90.1176 85.8809 90.8831 93.4395 80.3851 93.9994C76.0401 94.2312 71.4826 94.052 67.125 94.0285L42.5656 94.0472C38.7972 94.0481 34.998 94.0607 31.2289 94.0159C24.4633 93.9354 20.7861 91.8535 17.2471 86.0988C1.1096 85.9329 7.03165 70.9495 5.90746 59.6129C5.12841 51.7567 7.38377 46.5115 16.0346 45.9118C15.8323 41.031 16.018 36.0994 15.9224 31.2315C15.7039 20.0995 14.7381 7.35227 29.378 6.09665ZM45.938 65.4972C46.5318 83.7722 46.4684 86.866 26.4468 86.0386C25.1975 85.987 23.2717 86.0603 21.9861 86.1687C22.82 86.8545 24.2526 88.0997 25.1402 88.5784C26.6931 89.3511 28.0005 89.6655 29.7289 89.8083C35.0404 90.247 80.3604 90.3486 82.7786 89.5444C83.6276 89.2621 84.7525 88.4284 85.1552 87.611C85.6644 86.5774 85.8185 85.2982 85.8969 84.1613C86.2663 78.8002 85.9644 73.2421 85.954 67.8654L85.9438 37.4896L85.7359 37.1368L85.4551 37.0755C80.276 38.791 71.3551 37.7751 65.7349 38.0019C58.8314 38.2804 56.088 37.37 56.0596 45.8322C56.027 55.5407 58.3406 64.2022 45.938 65.4972ZM38.0578 81.7325C39.3197 81.4687 40.2566 80.9484 40.9896 79.8432C41.4108 79.2024 41.6839 78.4757 41.789 77.7161C42.6268 71.3791 41.7465 60.5291 41.5789 53.9428C41.5149 51.4269 39.0799 50.3482 36.879 50.1306C29.5507 49.9595 21.6135 49.8337 14.3229 50.1336C12.9371 50.4852 11.7103 50.8351 10.9331 52.1577C9.61107 54.4074 9.73291 75.3375 10.555 78.3651C10.782 79.2014 11.2524 80.6576 12.0187 81.1091C14.363 82.4905 34.5375 82.1874 38.0578 81.7325ZM31.6138 38.0937C25.5484 38.7669 23.6889 40.9043 20.8168 46.0414C25.4164 45.9362 30.0427 45.9507 34.6298 45.9172C41.7662 45.8651 45.9575 48.7134 46.0894 56.2219C46.0999 56.8834 46.1033 57.5449 46.0996 58.2065L46.1278 61.5574C51.4715 60.1232 51.9342 58.6144 52.0169 53.3001C52.0872 48.7861 51.2231 42.0444 53.2503 38.0606C46.0382 38.0042 38.8257 38.0153 31.6138 38.0937ZM61.175 10.0932C59.7365 10.2527 58.2561 10.3943 57.2936 11.6282C55.5379 13.8791 55.8003 25.8042 56.2137 28.8884C56.388 30.1891 56.8317 32.1189 57.9127 32.9472C60.1343 34.6495 77.4489 34.1554 81.0606 33.7553C82.5807 33.4063 83.7645 32.8319 84.6255 31.4738C86.5608 28.4214 86.394 18.3172 85.5923 14.8658C85.2763 13.5057 84.5633 11.7676 83.3383 11.005C80.591 9.29482 65.2131 9.90276 61.175 10.0932ZM53.2603 33.8507C51.3426 29.3631 51.196 14.4815 53.2661 10.0664C45.6645 10.0221 37.0295 9.82807 29.4775 10.1381C25.127 10.6224 20.9408 13.4332 20.458 18.1045C19.7522 24.9337 20.0572 32.4052 20.0719 39.3042C24.0782 35.1724 27.3501 34.068 33.1008 33.9788C35.3087 33.9584 37.5167 33.9519 39.7247 33.9593C44.1029 33.957 48.9169 34.0504 53.2603 33.8507Z"/><path fill="#207647" d="M29.99 56.0715L35.0402 55.9868C33.1543 59.2543 31.2433 62.5072 29.3073 65.7454C30.1588 67.3335 34.7554 74.6916 34.6693 75.7298L34.2354 75.9259L29.685 75.9123C28.3596 73.5728 27.1283 71.1362 25.8898 68.7469C24.6997 71.1903 23.3721 73.5644 21.9133 75.8575C20.1927 75.898 18.4725 75.9526 16.7528 76.0211C18.7777 72.9148 20.9103 69.2421 22.8825 66.0387C21.9504 64.2319 17.7091 57.5737 17.4636 56.0749C24.4231 55.9635 23.2228 57.4583 26.4032 62.9648C27.4363 60.164 28.4264 58.5354 29.99 56.0715Z"/></svg>