<?xml version="1.0" encoding="UTF-8"?>
<!-- Generator: visioncortex VTracer 0.6.4 -->
<svg version="1.1" xmlns="http://www.w3.org/2000/svg" width="100" height="100">
<path d="M0 0 C1.78 -0.02 1.78 -0.02 3.59 -0.05 C9 -0.09 14.41 -0.13 19.82 -0.16 C22.67 -0.17 25.53 -0.2 28.38 -0.24 C32.5 -0.3 36.61 -0.32 40.72 -0.33 C42 -0.35 43.28 -0.38 44.59 -0.4 C46.38 -0.39 46.38 -0.39 48.2 -0.39 C49.77 -0.4 49.77 -0.4 51.37 -0.42 C55.39 0.44 56.82 1.91 59.23 5.19 C59.73 7.95 59.92 10.09 59.88 12.84 C59.89 13.59 59.9 14.35 59.9 15.12 C59.93 17.61 59.91 20.09 59.9 22.57 C59.9 24.3 59.9 26.03 59.91 27.76 C59.92 31.38 59.91 35 59.88 38.62 C59.85 43.26 59.87 47.89 59.9 52.53 C59.92 56.1 59.91 59.67 59.9 63.24 C59.9 64.95 59.9 66.66 59.91 68.37 C59.93 70.76 59.91 73.15 59.88 75.54 C59.89 76.6 59.89 76.6 59.91 77.68 C59.83 81.37 59.28 83.13 57.07 86.13 C53.78 88.52 52.25 88.82 48.23 88.81 C46.46 88.82 46.46 88.82 44.64 88.84 C43.37 88.82 42.1 88.8 40.79 88.79 C39.48 88.79 38.17 88.79 36.82 88.79 C34.04 88.79 31.27 88.77 28.49 88.73 C24.95 88.7 21.4 88.69 17.85 88.7 C14.46 88.7 11.06 88.68 7.67 88.66 C6.4 88.66 5.13 88.66 3.82 88.66 C2.63 88.65 1.45 88.63 0.23 88.61 C-0.81 88.6 -1.85 88.6 -2.92 88.59 C-6.21 88.13 -8.1 87.13 -10.77 85.19 C-11.2 84.51 -11.64 83.83 -12.08 83.13 C-14.36 80.51 -16.48 80.39 -19.83 79.88 C-22.58 78.91 -23.29 77.69 -24.77 75.19 C-25.34 70.92 -25.28 66.66 -25.27 62.35 C-25.27 60.26 -25.31 58.18 -25.35 56.1 C-25.36 54.78 -25.36 53.46 -25.36 52.1 C-25.37 50.9 -25.38 49.69 -25.38 48.45 C-24.59 44.23 -23.18 42.74 -19.77 40.19 C-16.96 39.88 -16.96 39.88 -14.77 40.19 C-14.82 38.79 -14.82 38.79 -14.86 37.37 C-14.97 33.88 -15.04 30.39 -15.1 26.91 C-15.13 25.4 -15.17 23.9 -15.22 22.39 C-15.7 8.28 -15.7 8.28 -11.93 3.73 C-8.3 0.3 -4.84 0.06 0 0 Z M-7.77 7.19 C-11.95 13.38 -11.11 20.41 -10.96 27.63 C-10.94 28.84 -10.93 30.05 -10.92 31.29 C-10.88 34.26 -10.83 37.23 -10.77 40.19 C-9.85 40.21 -9.85 40.21 -8.9 40.22 C-6.11 40.27 -3.31 40.36 -0.52 40.44 C0.45 40.46 1.42 40.47 2.41 40.49 C9.54 40.73 9.54 40.73 12.86 42.94 C14.38 45.43 14.81 47.04 14.98 49.94 C15.04 50.74 15.09 51.54 15.15 52.36 C15.18 52.97 15.2 53.57 15.23 54.19 C16.65 54.25 18.06 54.29 19.48 54.32 C20.27 54.34 21.06 54.36 21.87 54.39 C24.5 54.17 26.04 53.66 28.23 52.19 C29.65 47.92 29.51 43.56 29.57 39.09 C29.7 35.78 30.01 33.53 31.81 30.72 C35.15 28.61 37.74 28.69 41.67 28.63 C46.76 28.54 50.16 28.42 54.23 25.19 C55.28 22.03 55.43 19.64 55.48 16.32 C55.51 15.29 55.53 14.26 55.56 13.2 C55.18 9.76 54.33 7.93 52.23 5.19 C49.33 4.22 47.44 4.06 44.41 4.03 C43.43 4.02 42.46 4.01 41.45 4 C40.39 4 39.33 3.99 38.25 3.99 C37.16 3.98 36.07 3.98 34.95 3.97 C32.64 3.96 30.33 3.96 28.03 3.95 C24.51 3.94 20.99 3.91 17.47 3.88 C15.23 3.87 12.99 3.87 10.75 3.86 C9.7 3.85 8.65 3.84 7.57 3.83 C1.69 3.85 -2.62 4.25 -7.77 7.19 Z M46.42 31.57 C45.69 31.6 44.97 31.63 44.22 31.66 C38.9 31.9 38.9 31.9 34.23 34.19 C33.37 36.79 33.06 38.53 32.91 41.2 C32.87 41.96 32.83 42.72 32.79 43.5 C32.75 44.29 32.71 45.07 32.67 45.88 C32.63 46.68 32.58 47.47 32.54 48.3 C32.43 50.26 32.33 52.23 32.23 54.19 C34.96 54.27 37.69 54.33 40.42 54.38 C41.19 54.41 41.96 54.43 42.75 54.46 C47.39 54.52 50.51 54.29 54.23 51.19 C55.13 48.49 55.35 46.96 55.33 44.18 C55.32 43.05 55.32 43.05 55.32 41.89 C55.31 41.1 55.3 40.31 55.29 39.51 C55.29 38.71 55.28 37.91 55.28 37.09 C55.27 35.12 55.25 33.16 55.23 31.19 C52.29 31.19 49.35 31.41 46.42 31.57 Z M-19.77 46.19 C-21.3 50.77 -20.95 55.33 -20.96 60.13 C-20.97 61.13 -20.98 62.13 -20.99 63.17 C-21 64.13 -21 65.1 -21 66.1 C-21 66.98 -21.01 67.86 -21.01 68.77 C-20.75 71.4 -20.25 73 -18.77 75.19 C-14.19 76.72 -9.63 76.38 -4.83 76.38 C-3.83 76.39 -2.83 76.4 -1.79 76.42 C-0.35 76.42 -0.35 76.42 1.13 76.42 C2.46 76.43 2.46 76.43 3.8 76.44 C6.44 76.17 8.03 75.67 10.23 74.19 C11.76 69.61 11.42 65.05 11.42 60.26 C11.44 58.75 11.44 58.75 11.46 57.22 C11.46 56.25 11.46 55.29 11.46 54.29 C11.47 53.41 11.47 52.53 11.47 51.62 C11.21 48.98 10.71 47.39 9.23 45.19 C4.65 43.67 0.09 44.01 -4.71 44.01 C-5.71 43.99 -6.71 43.98 -7.74 43.97 C-8.71 43.97 -9.68 43.96 -10.67 43.96 C-11.99 43.96 -11.99 43.96 -13.34 43.95 C-15.98 44.21 -17.57 44.72 -19.77 46.19 Z M45.6 57.41 C44.74 57.43 43.87 57.46 42.98 57.48 C40.21 57.55 37.44 57.62 34.67 57.69 C32.79 57.74 30.92 57.79 29.05 57.84 C24.44 57.96 19.84 58.07 15.23 58.19 C15.21 59.37 15.18 60.55 15.15 61.77 C15.1 63.33 15.04 64.89 14.98 66.44 C14.96 67.61 14.96 67.61 14.94 68.8 C14.78 72.51 14.64 74.61 12.45 77.7 C10.04 79.32 8.78 79.72 5.9 79.8 C5.1 79.83 4.3 79.87 3.48 79.9 C2.66 79.91 1.83 79.93 0.98 79.94 C0.14 79.97 -0.7 80 -1.57 80.03 C-3.63 80.1 -5.7 80.15 -7.77 80.19 C-5.55 82.75 -4.08 83.57 -0.77 84.19 C0.88 84.29 2.54 84.34 4.2 84.35 C5.18 84.36 6.16 84.37 7.18 84.38 C8.24 84.39 9.29 84.39 10.38 84.4 C11.48 84.4 12.57 84.41 13.69 84.41 C16 84.42 18.31 84.43 20.62 84.43 C24.15 84.44 27.68 84.47 31.21 84.51 C33.46 84.51 35.7 84.52 37.95 84.52 C39 84.53 40.06 84.55 41.14 84.56 C48.23 84.65 48.23 84.65 54.23 81.19 C55.21 78.25 55.35 76.37 55.33 73.31 C55.33 72.37 55.32 71.43 55.32 70.46 C55.31 69.49 55.3 68.51 55.29 67.51 C55.29 66.52 55.28 65.53 55.28 64.51 C55.27 62.07 55.25 59.63 55.23 57.19 C52.02 57.19 48.81 57.33 45.6 57.41 Z " fill="#7117A5" transform="translate(30.76904296875,5.80712890625)"/>
<path d="M0 0 C1.98 0 3.96 0 6 0 C7.9 1.97 7.9 1.97 9.38 4.5 C9.88 5.34 10.38 6.17 10.9 7.03 C11.26 7.68 11.63 8.33 12 9 C12.33 6.03 12.66 3.06 13 0 C14.65 0 16.3 0 18 0 C18 6.6 18 13.2 18 20 C16.02 20 14.04 20 12 20 C10.1 18.03 10.1 18.03 8.62 15.5 C8.12 14.66 7.62 13.83 7.1 12.97 C6.56 11.99 6.56 11.99 6 11 C5.67 13.97 5.34 16.94 5 20 C3.35 20 1.7 20 0 20 C0 13.4 0 6.8 0 0 Z " fill="#7117A4" transform="translate(17,56)"/>
</svg>
