<?xml version="1.0" encoding="UTF-8"?>
<!-- Generator: visioncortex VTracer 0.6.4 -->
<svg version="1.1" xmlns="http://www.w3.org/2000/svg" width="100" height="100">
<path d="M0 0 C1.92 -0.03 1.92 -0.03 3.88 -0.06 C5.73 -0.07 5.73 -0.07 7.62 -0.08 C8.74 -0.09 9.87 -0.1 11.03 -0.11 C14.49 0.29 16.2 1.44 19.12 3.25 C21.72 3.68 21.72 3.68 24.43 3.62 C25.93 3.65 25.93 3.65 27.45 3.67 C29.52 3.68 31.59 3.69 33.67 3.69 C39.81 3.8 43.44 4.15 48.12 8.25 C53.38 14.23 52.35 21.32 52.37 28.82 C52.37 31.04 52.41 33.27 52.44 35.49 C52.44 36.92 52.45 38.34 52.45 39.77 C52.46 41.06 52.47 42.35 52.48 43.68 C51.96 48.85 50.41 52.09 46.56 55.56 C43.23 57.87 41.53 58.38 37.53 58.43 C36.09 58.45 36.09 58.45 34.63 58.47 C33.6 58.47 32.56 58.48 31.49 58.49 C29.89 58.5 29.89 58.5 28.26 58.51 C26 58.53 23.74 58.54 21.48 58.55 C18.03 58.56 14.59 58.61 11.15 58.65 C8.95 58.66 6.75 58.67 4.55 58.68 C3.53 58.69 2.51 58.71 1.45 58.73 C-4.96 58.71 -11.06 58.06 -15.88 53.25 C-19.11 53.09 -22.34 53 -25.58 52.92 C-29.85 52.05 -31.16 50.61 -33.88 47.25 C-34.52 44.01 -34.52 44.01 -34.54 40.38 C-34.55 39.06 -34.55 37.75 -34.56 36.39 C-34.55 35.71 -34.54 35.03 -34.53 34.33 C-34.5 32.25 -34.53 30.18 -34.56 28.11 C-34.55 26.14 -34.55 26.14 -34.54 24.12 C-34.53 22.93 -34.53 21.73 -34.52 20.49 C-33.7 16.35 -32.14 14.84 -28.88 12.25 C-26.06 11.94 -26.06 11.94 -23.88 12.25 C-23.65 11.36 -23.42 10.48 -23.19 9.56 C-21.68 5.77 -19.96 3.88 -16.88 1.25 C-11.47 -0.55 -5.66 0.02 0 0 Z M-15.88 7.25 C-17.83 9.78 -17.83 9.78 -18.88 12.25 C-18.29 12.26 -17.71 12.27 -17.1 12.28 C-14.44 12.33 -11.78 12.42 -9.12 12.5 C-8.2 12.51 -7.28 12.53 -6.34 12.54 C-5 12.59 -5 12.59 -3.64 12.64 C-2.82 12.66 -2.01 12.68 -1.17 12.7 C2.04 13.47 3.2 14.59 5.12 17.25 C5.64 20.39 5.64 20.39 5.66 24.06 C5.66 24.71 5.66 25.36 5.67 26.03 C5.67 27.41 5.66 28.78 5.65 30.15 C5.63 32.24 5.65 34.34 5.67 36.43 C5.67 37.77 5.66 39.1 5.66 40.44 C5.65 41.65 5.65 42.86 5.64 44.11 C5.03 47.84 4.12 49.01 1.12 51.25 C-2.12 52 -2.12 52 -4.88 52.25 C-4.88 52.58 -4.88 52.91 -4.88 53.25 C-1.23 54.09 2.12 54.37 5.86 54.35 C6.93 54.34 8 54.34 9.1 54.34 C10.2 54.33 11.3 54.32 12.44 54.31 C14.12 54.31 14.12 54.31 15.84 54.3 C18.6 54.29 21.36 54.27 24.12 54.25 C23.64 53.41 23.15 52.57 22.65 51.71 C20.94 47.83 20.73 45.13 20.68 40.91 C20.67 40.22 20.66 39.54 20.64 38.83 C20.6 36.66 20.58 34.49 20.56 32.31 C20.54 30.14 20.51 27.97 20.47 25.8 C20.44 23.83 20.42 21.86 20.4 19.89 C20.02 14.78 19.45 10.61 15.81 6.88 C10.8 3.84 5.48 4.04 -0.25 4 C-0.98 3.98 -1.71 3.96 -2.46 3.94 C-7.67 3.9 -11.31 4.65 -15.88 7.25 Z M23.12 8.25 C23.22 12.96 23.33 17.68 23.44 22.39 C23.48 23.99 23.52 25.59 23.55 27.2 C23.59 29.51 23.65 31.82 23.71 34.13 C23.72 34.84 23.73 35.54 23.75 36.27 C23.91 41.97 24.42 47.24 28.19 51.69 C32.24 53.85 35.63 54.19 40.12 53.25 C43.19 51.52 45.53 49.45 47.12 46.25 C47.41 42.04 47.44 37.83 47.48 33.61 C47.49 32.21 47.52 30.81 47.56 29.41 C48.17 20.45 48.17 20.45 44.98 12.42 C39.98 8.62 35.43 8 29.25 8.12 C28.1 8.14 26.95 8.16 25.76 8.18 C24.89 8.2 24.02 8.23 23.12 8.25 Z M-28.88 18.25 C-30.4 22.83 -30.06 27.39 -30.06 32.19 C-30.07 33.19 -30.09 34.19 -30.1 35.22 C-30.1 36.19 -30.1 37.16 -30.11 38.15 C-30.11 39.03 -30.11 39.92 -30.12 40.82 C-29.85 43.46 -29.35 45.05 -27.88 47.25 C-23.3 48.78 -18.73 48.43 -13.94 48.44 C-12.94 48.45 -11.93 48.46 -10.9 48.47 C-9.45 48.48 -9.45 48.48 -7.97 48.48 C-6.65 48.49 -6.65 48.49 -5.3 48.49 C-2.66 48.23 -1.07 47.73 1.12 46.25 C2.65 41.67 2.31 37.11 2.31 32.31 C2.33 30.81 2.33 30.81 2.35 29.28 C2.35 28.31 2.35 27.34 2.36 26.35 C2.36 25.47 2.36 24.58 2.37 23.68 C2.1 21.04 1.6 19.45 0.12 17.25 C-4.45 15.72 -9.02 16.07 -13.81 16.06 C-14.81 16.05 -15.82 16.04 -16.85 16.03 C-17.82 16.02 -18.78 16.02 -19.78 16.02 C-21.1 16.01 -21.1 16.01 -22.45 16.01 C-25.09 16.27 -26.68 16.77 -28.88 18.25 Z " fill="#535AB8" transform="translate(39.875,35.75)"/>
<path d="M0 0 C4.62 2.19 6.73 4.5 9 9 C9.83 14.55 9.72 19.47 7.31 24.56 C4.21 27.83 1.62 29.76 -2.9 30.43 C-9.05 30.44 -13.31 30.45 -18 26 C-21.89 20.56 -21.79 15.48 -21 9 C-16.64 -0.21 -9.35 -1.14 0 0 Z M-15 9 C-16.6 12.2 -16.5 15.53 -16 19 C-14.21 21.81 -12.98 23.51 -10 25 C-4.19 25.53 -4.19 25.53 0.94 23.12 C4.1 19.87 4.33 17.58 4.29 13.04 C3.84 9.87 2.25 8.18 0 6 C-5.72 3.14 -10.78 4.65 -15 9 Z " fill="#5259B8" transform="translate(46,2)"/>
<path d="M0 0 C4.13 2.06 6.3 3.75 8 8 C8.71 13.02 8.53 16.94 6.25 21.5 C3.56 24.49 1.63 25.77 -2.37 26.34 C-8.09 26.43 -11.56 25.99 -16 22 C-18.74 17.56 -18.66 13.07 -18 8 C-13.99 -0.02 -8.43 -1.09 0 0 Z M-11.5 6.5 C-13.62 10.04 -13.79 12.98 -13 17 C-11.67 19.67 -11.67 19.67 -9 21 C-4.98 21.79 -2.04 21.62 1.5 19.5 C3.62 15.96 3.79 13.02 3 9 C1.67 6.33 1.67 6.33 -1 5 C-5.02 4.21 -7.96 4.38 -11.5 6.5 Z " fill="#5259B9" transform="translate(78,10)"/>
<path d="M0 0 C5.28 0 10.56 0 16 0 C16 1.32 16 2.64 16 4 C14.35 4 12.7 4 11 4 C11 9.28 11 14.56 11 20 C9.02 20 7.04 20 5 20 C5 14.72 5 9.44 5 4 C3.35 4 1.7 4 0 4 C0 2.68 0 1.36 0 0 Z " fill="#5359B9" transform="translate(18,58)"/>
</svg>
