<?xml version="1.0" encoding="utf-8" ?><svg xmlns="http://www.w3.org/2000/svg" xmlns:xlink="http://www.w3.org/1999/xlink" width="100" height="100" viewBox="0 0 100 100"><path fill="#2B56B5" d="M29.1298 6.0847C29.9335 5.96918 32.5687 5.9533 33.4339 5.9507L64.9312 5.93085C70.2195 5.93195 76.2315 5.63174 81.4626 6.25625C90.4194 7.32555 90.0963 14.9735 90.1053 22.038L90.1035 34.6256L90.1043 77.83C90.1026 79.9633 90.1185 82.0871 90.0278 84.2195C89.5116 96.3516 75.817 94.0806 67.375 94.0335L43.0035 94.0483C39.1011 94.0516 35.1726 94.0665 31.2688 94.0245C24.5826 93.9527 20.6252 91.8822 17.2467 86.0457C0.973483 85.9969 7.15377 70.8042 5.93401 59.5389C5.08823 51.7275 7.38886 46.3972 16.0608 45.924C15.8211 41.5716 15.9782 35.8942 15.9397 31.4364C15.908 27.7688 15.7514 20.1541 16.391 16.9341C16.7933 14.8161 17.6994 12.8259 19.0329 11.1318C21.6924 7.79826 25.0381 6.53659 29.1298 6.0847ZM20.0016 39.2017C26.8341 32.8162 31.3004 34.0645 40.1795 33.9375C42.3245 33.9068 44.513 33.9392 46.659 33.9403L72.6399 33.9617C76.0718 33.9709 81.5944 34.6068 84.1708 32.0944C86.8136 29.3807 85.7764 24.0967 85.9277 20.6024C86.1189 16.1869 86.1204 10.6187 80.4272 10.2148C75.8521 9.89015 71.2327 10.0157 66.6327 10.0173L39.2999 10.0387C37.6672 10.041 30.5977 10.2078 29.5129 10.0786C18.876 11.6184 20.172 20.5758 20.0641 28.8489C20.0192 32.2861 20.1335 35.7727 20.0016 39.2017ZM14.2701 50.0725C12.8561 50.4945 11.7093 50.8959 10.9639 52.2859C9.55977 54.9044 9.68735 75.6047 10.687 78.842C10.9495 79.6919 11.2869 80.6069 12.1157 81.0494C15.1303 82.6587 33.7872 82.0697 38.0536 81.7581C40.1191 81.1979 40.6809 80.4269 41.7718 78.5697C41.9692 73.2147 42.0382 67.8557 41.9785 62.4974C41.9714 56.7353 43.4192 50.1538 35.6505 50.0112C28.5612 49.8811 21.3247 50.2607 14.2701 50.0725ZM85.4292 36.6032C80.0486 38.7066 72.126 38.0531 66.2247 38.046L40.0842 38.0198C30.1509 38.0152 25.8708 36.6707 20.5338 46.0705C24.1423 45.9599 34.7107 45.6847 38.025 46.0983C44.6772 47.3574 46.3083 51.5225 46.1483 57.8401C46.1137 59.204 46.1877 60.6789 45.9936 62.0286C53.8115 61.9488 61.6298 61.9282 69.448 61.9669C73.3644 61.9665 77.3684 62.0962 81.243 61.6806C83.3799 61.4513 85.4551 59.1883 85.6394 57.2249C85.8623 54.8495 86.405 37.894 85.8201 36.5626L85.4292 36.6032ZM85.5806 64.6129C80.4039 66.6757 72.8857 66.0376 67.2345 66.0463C60.2076 66.057 53.0767 66.1021 46.0544 66.0007C46.2002 75.8415 48.0968 86.2753 34.9763 86.0252C30.9971 85.9493 25.8256 85.8484 21.9027 86.1487C22.8642 86.9568 23.7906 87.7589 24.8192 88.482C26.0288 88.9964 27.3259 89.6335 28.6451 89.7679C35.3876 90.4552 43.5576 89.9678 50.443 89.9689C59.7158 89.9704 69.1852 90.3658 78.4376 89.8738C79.8839 89.7969 81.6094 89.6942 82.9707 89.15C84.0076 88.7355 84.8369 87.5211 85.2469 86.5263C86.3083 83.9516 86.2456 68.0869 85.8609 64.6266L85.5806 64.6129Z"/><path fill="#2B56B5" fill-opacity="0.0078431377" d="M14.2701 50.0725C21.3247 50.2607 28.5612 49.8811 35.6505 50.0112C43.4192 50.1538 41.9714 56.7353 41.9785 62.4974C42.0382 67.8557 41.9692 73.2147 41.7718 78.5697C40.6809 80.4269 40.1191 81.1979 38.0536 81.7581C33.7872 82.0697 15.1303 82.6587 12.1157 81.0494C11.2869 80.6069 10.9495 79.6919 10.687 78.842C9.68735 75.6047 9.55977 54.9044 10.9639 52.2859C11.7093 50.8959 12.8561 50.4945 14.2701 50.0725Z"/><path fill="#2B56B5" d="M25.405 56.8369C26.3109 56.858 27.4121 56.7839 28.1632 57.2514C29.2366 58.3819 30.2911 66.8289 30.4137 68.655C31.4679 65.6454 32.1102 60.3825 32.811 56.9313C34.1071 56.8768 35.8189 56.9428 37.1469 56.9553C36.3295 59.2143 33.602 72.4498 33.2737 75.0519L28.0862 75.0548C27.5211 71.8706 26.6075 68.2962 26.3818 65.1621L26.0696 65.2424C25.4197 65.8494 24.0769 73.6205 23.887 74.9899C22.2258 75.0766 20.5633 75.1373 18.9003 75.1721C17.6044 70.3603 16.4416 61.171 14.9126 57.014C16.0214 56.9542 17.9428 56.7815 18.911 57.2282C19.7457 58.5455 20.7434 65.7241 21.5531 68.2975C22.1928 65.279 22.4816 60.2402 23.394 57.4627C24.2739 56.8152 24.224 56.9906 25.405 56.8369Z"/></svg>