<?xml version="1.0" encoding="utf-8" ?><svg xmlns="http://www.w3.org/2000/svg" xmlns:xlink="http://www.w3.org/1999/xlink" width="100" height="100" viewBox="0 0 100 100"><path fill="#B04227" d="M50.3832 6.10726C62.27 5.34317 75.5613 10.7395 83.6847 19.4465C110.868 48.5827 90.7004 94.7564 49.9763 93.9582C39.527 93.232 35.309 90.8655 26.5949 86.2947C23.5555 84.7005 10.328 88.2757 6.4168 83.3662C4.57824 81.0584 4.18391 79.0959 4.00703 76.14C4.01363 68.4139 3.63126 60.5061 4.26277 52.8134C4.28448 50.7343 7.56166 48.3383 7.85685 46.7428C9.74814 36.5205 11.9189 28.8809 19.1154 20.8561C27.4258 11.5892 37.8366 6.83714 50.3832 6.10726ZM12.2004 46.0058L26.4928 45.9354C37.374 45.8909 44.803 45.2794 44.1094 58.8437C43.7523 65.8288 44.7481 72.9824 43.5417 79.9738C42.8146 84.1877 36.1316 86.1092 35.9955 86.4987C37.8854 88.7773 52.4153 90.3436 56.0862 89.6599C66.8954 88.4929 76.7759 83.0126 83.4889 74.4606C88.5254 68.1727 90.6297 60.2364 83.4169 54.3927C74.6826 47.5537 52.2473 58.9883 50.1314 43.5033C49.2162 36.8057 51.2841 27.2835 48.8375 20.8223C46.9388 15.8079 41.3709 13.6343 36.3977 14.1233C28.7984 15.8767 22.6544 22.5629 18.4713 28.8741C14.0328 35.5708 14.2426 39.6173 12.2004 46.0058ZM43.7307 10.8893C56.2923 16.5287 54.3093 26.8455 54.2361 38.4665C54.1834 46.8365 54.8264 47.7849 63.3414 47.9731C74.5149 48.22 83.06 45.5879 90.2877 56.0784C90.6376 56.9229 90.5235 57.0043 91.1531 57.506C91.4635 56.9518 91.4405 56.3076 91.4992 55.691C92.0192 50.2258 91.798 44.4375 90.3029 39.1492C87.3825 28.9479 80.5514 20.3128 71.2961 15.123C64.9438 11.5829 55.7466 9.29273 48.4805 10.3425C46.9137 10.5288 45.2969 10.7426 43.7307 10.8893ZM33.625 81.8578C36.7063 81.7522 38.0305 81.7413 39.6925 78.8153C40.0133 73.4844 40.0452 68.119 39.9483 62.7004C39.8949 59.7154 40.4335 54.1981 38.6776 51.6085C37.9341 50.512 34.6985 50.0492 33.4467 50.0503C26.9454 50.0455 20.3141 49.9115 13.821 50.1357C12.261 50.2163 10.5267 50.2578 9.38578 51.4964C7.41596 53.6348 7.96653 71.5729 8.18059 75.4809C8.27686 77.2384 8.47303 79.2605 9.55903 80.714C12.6102 82.7401 29.0528 82.037 33.625 81.8578Z"/><path fill="#B04227" d="M16.9306 55.9404C21.4779 55.9655 30.4678 54.8225 31.7222 60.75C32.1003 62.6031 31.7309 64.5307 30.6942 66.1126C29.1265 68.4935 27.1697 69.0057 24.6363 69.5092L21.4383 69.4894C21.715 71.0565 21.8419 74.4133 21.9481 76.1723C20.302 76.2153 18.6557 76.2477 17.0092 76.2695C16.9095 69.5067 17.0054 62.7116 16.9306 55.9404ZM21.5018 66.0528C23.2924 65.9359 24.2519 65.9172 25.9324 65.2302C28.8955 60.887 25.0597 59.5664 21.443 59.4013C21.75 61.9089 21.8807 63.5451 21.5018 66.0528Z"/></svg>