<?xml version="1.0" encoding="UTF-8"?>
<!-- Generator: visioncortex VTracer 0.6.4 -->
<svg version="1.1" xmlns="http://www.w3.org/2000/svg" width="100" height="100">
<path d="M0 0 C6.44 2.87 12.21 7.03 18 11 C19.53 12.03 21.07 13.05 22.61 14.07 C34.86 22.32 34.86 22.32 37 25 C37.39 27.26 37.39 27.26 37.4 29.93 C37.42 30.93 37.43 31.93 37.44 32.96 C37.44 34.04 37.44 35.12 37.43 36.24 C37.44 37.35 37.44 38.47 37.45 39.61 C37.46 41.97 37.45 44.33 37.45 46.69 C37.44 50.29 37.47 53.89 37.5 57.49 C37.5 59.78 37.5 62.07 37.5 64.36 C37.51 65.44 37.52 66.51 37.53 67.62 C37.48 73.56 37.22 77.46 33 82 C28.65 85.38 25.85 86.5 20.36 86.52 C19.05 86.53 17.75 86.54 16.41 86.56 C15 86.55 13.6 86.54 12.19 86.53 C10.73 86.53 9.27 86.54 7.82 86.54 C4.77 86.55 1.72 86.54 -1.32 86.52 C-5.22 86.5 -9.11 86.51 -13 86.54 C-16.01 86.55 -19.01 86.55 -22.02 86.54 C-23.46 86.53 -24.89 86.54 -26.33 86.55 C-28.34 86.56 -30.35 86.54 -32.36 86.52 C-34.07 86.51 -34.07 86.51 -35.81 86.51 C-40.57 85.75 -43.72 83.45 -46.88 79.88 C-48 78 -48 78 -48 76 C-48.78 75.73 -49.57 75.46 -50.38 75.19 C-53 74 -53 74 -55 71 C-55.43 66.59 -55.41 62.18 -55.43 57.75 C-55.44 55.57 -55.49 53.4 -55.54 51.22 C-55.55 49.84 -55.55 48.45 -55.56 47.07 C-55.57 45.81 -55.59 44.55 -55.6 43.25 C-54.84 39.13 -53.36 38.32 -50 36 C-49.5 33.2 -49.62 30.69 -49.73 27.85 C-47.71 19.92 -35.83 14.87 -29.38 10.81 C-28.24 10.09 -27.11 9.38 -25.98 8.66 C-9.17 -2 -9.17 -2 0 0 Z M-18.5 9.81 C-19.65 10.55 -19.65 10.55 -20.83 11.3 C-22.43 12.33 -24.02 13.37 -25.6 14.42 C-27.96 15.98 -30.34 17.49 -32.73 19 C-34.19 19.96 -35.66 20.92 -37.12 21.88 C-37.82 22.31 -38.51 22.75 -39.22 23.21 C-42.96 25.67 -42.96 25.67 -44.57 29.67 C-44.14 32.23 -44.14 32.23 -41.81 34.38 C-39.19 36.25 -39.19 36.25 -36.6 35.77 C-33.88 34.96 -31.98 33.95 -29.63 32.38 C-28.81 31.84 -28 31.3 -27.16 30.75 C-26.3 30.17 -25.44 29.59 -24.56 29 C-22.78 27.82 -20.99 26.64 -19.2 25.45 C-18.32 24.87 -17.45 24.28 -16.54 23.68 C-12.99 21.33 -9.4 19.04 -5.81 16.75 C-2.23 14.61 -2.23 14.61 1 12 C1.33 9.54 1.33 9.54 1 7 C-6.16 2.22 -12.11 5.59 -18.5 9.81 Z M6 11 C5.55 11.76 5.09 12.52 4.62 13.31 C2.93 16.11 1.68 17.26 -1 19.06 C-1.86 19.64 -2.73 20.23 -3.62 20.82 C-8.95 24.28 -14.34 27.65 -19.75 31 C-20.56 31.5 -21.36 32.01 -22.2 32.52 C-22.93 32.98 -23.66 33.43 -24.41 33.9 C-24.94 34.26 -25.46 34.62 -26 35 C-26 35.33 -26 35.66 -26 36 C-24.76 36.25 -23.52 36.5 -22.25 36.75 C-18.4 37.52 -16.61 39.1 -14 42 C-12.74 41.21 -11.49 40.41 -10.23 39.62 C-9.43 39.12 -8.63 38.61 -7.8 38.09 C-6.05 36.99 -4.31 35.88 -2.57 34.77 C4.88 30.04 4.88 30.04 8.68 27.82 C9.65 27.24 10.62 26.66 11.62 26.06 C12.46 25.58 13.3 25.1 14.16 24.6 C16.51 22.55 16.7 21.04 17 18 C15.55 16.83 14.09 15.66 12.62 14.5 C11.41 13.53 11.41 13.53 10.16 12.53 C8.17 10.81 8.17 10.81 6 11 Z M22 21 C21.5 21.87 21 22.74 20.49 23.64 C17.65 28 13.52 30.19 9.12 32.81 C7.42 33.86 5.72 34.91 4.02 35.95 C2.35 36.97 0.67 37.98 -1 39 C-3.74 40.67 -6.47 42.36 -9.19 44.06 C-9.78 44.42 -10.37 44.78 -10.99 45.15 C-12.78 46.23 -12.78 46.23 -15 48 C-15 48.99 -15 49.98 -15 51 C-13.42 52.55 -13.42 52.55 -11.31 53.81 C-10.63 54.27 -9.94 54.73 -9.24 55.21 C-6.13 56.31 -4.96 55.37 -2 54 C-0.18 52.96 1.61 51.88 3.39 50.77 C4.41 50.13 5.43 49.49 6.48 48.83 C7.54 48.17 8.6 47.5 9.69 46.81 C10.73 46.16 11.76 45.52 12.83 44.85 C15.9 42.92 18.95 40.97 22 39 C22.99 38.38 23.98 37.76 25 37.13 C25.91 36.53 26.83 35.94 27.77 35.32 C28.59 34.8 29.4 34.28 30.25 33.74 C32.25 32.1 32.25 32.1 32.39 29.4 C32.23 26.84 32.23 26.84 30.07 25.2 C29.24 24.7 28.41 24.2 27.56 23.69 C26.74 23.18 25.92 22.66 25.07 22.14 C23.25 20.92 23.25 20.92 22 21 Z M26.97 41.07 C25.93 41.72 24.89 42.37 23.82 43.04 C22.72 43.73 21.63 44.42 20.5 45.12 C19.44 45.79 18.37 46.46 17.27 47.14 C11.12 51 5.02 54.93 -1 59 C1.66 61.19 4.24 63.15 7.19 64.94 C10.4 67.29 11.24 68.13 12 72 C11.85 75.36 11.48 78.67 11 82 C17.46 82.35 22.33 82.29 28 79 C31.81 75.14 32.51 72.54 32.61 67.16 C32.64 65.85 32.67 64.54 32.71 63.19 C32.72 61.81 32.74 60.44 32.75 59.06 C32.78 57.69 32.81 56.32 32.84 54.95 C32.96 49.3 33.01 43.65 33 38 C30.88 38 28.67 40 26.97 41.07 Z M-50 42 C-51.53 46.58 -51.18 51.14 -51.19 55.94 C-51.2 56.94 -51.21 57.94 -51.22 58.97 C-51.23 59.94 -51.23 60.91 -51.23 61.9 C-51.23 62.78 -51.24 63.67 -51.24 64.57 C-50.98 67.21 -50.48 68.8 -49 71 C-44.42 72.53 -39.86 72.18 -35.06 72.19 C-34.06 72.2 -33.06 72.21 -32.03 72.22 C-30.58 72.23 -30.58 72.23 -29.1 72.23 C-27.78 72.24 -27.78 72.24 -26.43 72.24 C-23.79 71.98 -22.2 71.48 -20 70 C-18.47 65.42 -18.82 60.86 -18.81 56.06 C-18.79 54.56 -18.79 54.56 -18.78 53.03 C-18.77 52.06 -18.77 51.09 -18.77 50.1 C-18.77 49.22 -18.76 48.33 -18.76 47.43 C-19.02 44.79 -19.52 43.2 -21 41 C-25.58 39.47 -30.14 39.82 -34.94 39.81 C-35.94 39.8 -36.94 39.79 -37.97 39.78 C-38.94 39.77 -39.91 39.77 -40.9 39.77 C-42.22 39.76 -42.22 39.76 -43.57 39.76 C-46.21 40.02 -47.8 40.52 -50 42 Z M-15 57 C-15.03 57.96 -15.05 58.93 -15.08 59.92 C-15.13 61.19 -15.19 62.45 -15.25 63.75 C-15.32 65.63 -15.32 65.63 -15.39 67.55 C-16 71 -16 71 -17.34 73.41 C-21.69 76.02 -26.27 75.68 -31.25 75.75 C-32.8 75.79 -32.8 75.79 -34.38 75.84 C-36.92 75.91 -39.46 75.96 -42 76 C-37.69 80.67 -35.76 81.87 -29.5 82.16 C-28.12 82.18 -26.73 82.19 -25.35 82.2 C-24.61 82.21 -23.87 82.21 -23.11 82.22 C-21.56 82.23 -20 82.24 -18.45 82.24 C-16.07 82.25 -13.7 82.28 -11.33 82.31 C-9.82 82.32 -8.3 82.32 -6.79 82.33 C-5.73 82.35 -5.73 82.35 -4.65 82.37 C-0.25 82.35 2.51 81.72 6 79 C8.18 76.28 8.18 76.28 8.12 73.69 C4.94 66.07 -7.11 60.99 -14 57 C-14.33 57 -14.66 57 -15 57 Z " fill="#5D96F0" transform="translate(57,6)"/>
<path d="M0 0 C2.61 2.35 3.67 4.11 4.88 7.38 C5.07 11.5 4.29 15.37 1.7 18.66 C-1.43 21.13 -5.13 21.1 -9 21 C-12.87 19.65 -13.8 18.33 -15.94 14.81 C-17.32 9.86 -16.76 7.79 -15 3 C-11.26 -2.05 -5.55 -1.47 0 0 Z M-9.81 5.62 C-11.41 8.82 -10.96 10.61 -10 14 C-9.34 14.66 -8.68 15.32 -8 16 C-5.46 15.91 -5.46 15.91 -3 15 C-0.67 12.17 -0.67 12.17 -1.25 8.94 C-1.76 5.9 -1.76 5.9 -4 4 C-7.91 3.55 -7.91 3.55 -9.81 5.62 Z " fill="#5F94EF" transform="translate(28,52)"/>
</svg>
